<?xml version="1.0" encoding="utf-8"?>
<!-- Generator: Adobe Illustrator 25.0.1, SVG Export Plug-In . SVG Version: 6.00 Build 0)  -->
<svg version="1.1" id="レイヤー_1" xmlns="http://www.w3.org/2000/svg" xmlns:xlink="http://www.w3.org/1999/xlink" x="0px"
	 y="0px" viewBox="0 0 900 300" style="enable-background:new 0 0 900 300;" xml:space="preserve">
<style type="text/css">
	.st0{fill:#FFFFFF;}
	.st1{fill:#332926;}
	.st2{clip-path:url(#SVGID_2_);}
	.st3{font-family:'CenturyGothicPro-Bold';}
	.st4{font-size:79.1347px;}
	.st5{letter-spacing:5.34;}
</style>
<g id="surface1">
	<rect class="st0" width="900" height="300"/>
	<rect class="st0" width="900" height="300"/>
	<rect class="st0" width="900" height="300"/>
	<path class="st1" d="M143.22,2.79v0.33l-0.42-0.3L17.9,185.59V2.79H0v219.27h100.14v-17.9H27.24l33.12-48.52h82.86v65.32h17.9V2.79
		H143.22z M72.66,137.4l70.57-103.28V137.4H72.66z"/>
	<path class="st1" d="M630.83,2.55v187.4L499.66,2.66V2.55h-0.09l-0.21-0.33l-0.51,0.33h-17.21v218.08h18.02V34.09l130.6,186.45
		l0.57-0.42v0.51h18.02V2.55H630.83z"/>
	<g>
		<defs>
			<rect id="SVGID_1_" x="655" y="1" width="107" height="225.5"/>
		</defs>
		<clipPath id="SVGID_2_">
			<use xlink:href="#SVGID_1_"  style="overflow:visible;"/>
		</clipPath>
		<g class="st2">
			<path class="st1" d="M743.14,1.68v171.8c0,1.14-0.05,2.28-0.17,3.42c-0.11,1.14-0.28,2.27-0.5,3.39s-0.5,2.23-0.83,3.32
				s-0.71,2.17-1.15,3.22s-0.93,2.09-1.46,3.09s-1.12,1.99-1.76,2.94c-0.63,0.95-1.31,1.87-2.04,2.75c-0.73,0.88-1.49,1.73-2.3,2.54
				s-1.65,1.57-2.54,2.3c-0.88,0.72-1.8,1.4-2.75,2.04c-0.95,0.63-1.93,1.22-2.94,1.76c-1.01,0.54-2.04,1.03-3.09,1.46
				s-2.13,0.82-3.22,1.15s-2.2,0.61-3.32,0.83s-2.25,0.39-3.39,0.5s-2.28,0.17-3.42,0.17s-2.28-0.05-3.42-0.17s-2.27-0.28-3.39-0.5
				s-2.23-0.5-3.32-0.83s-2.17-0.71-3.22-1.15s-2.09-0.93-3.09-1.46c-1.01-0.54-1.99-1.12-2.94-1.76c-0.95-0.64-1.87-1.32-2.75-2.04
				c-0.88-0.73-1.73-1.49-2.54-2.3s-1.57-1.65-2.3-2.54c-0.72-0.88-1.4-1.8-2.04-2.75c-0.63-0.95-1.22-1.93-1.76-2.94
				s-1.03-2.04-1.46-3.09s-0.82-2.13-1.15-3.22s-0.61-2.2-0.83-3.32s-0.39-2.25-0.5-3.39c-0.11-1.14-0.17-2.28-0.17-3.42v-5.49
				h-17.91v5.49c0,1.73,0.09,3.46,0.26,5.18c0.17,1.73,0.42,3.44,0.76,5.14c0.34,1.7,0.76,3.38,1.26,5.04
				c0.5,1.66,1.09,3.29,1.75,4.89c0.66,1.6,1.41,3.16,2.22,4.69c0.82,1.53,1.7,3.02,2.67,4.45c0.96,1.44,1.99,2.83,3.09,4.17
				c1.1,1.34,2.26,2.62,3.48,3.85c1.23,1.23,2.51,2.39,3.85,3.49c1.34,1.1,2.73,2.13,4.17,3.09c1.44,0.96,2.93,1.86,4.45,2.67
				c1.53,0.82,3.09,1.55,4.7,2.22s3.23,1.25,4.89,1.75c1.66,0.5,3.34,0.92,5.04,1.26c1.7,0.34,3.41,0.59,5.14,0.76
				c1.73,0.17,3.45,0.25,5.19,0.25c1.73,0,3.46-0.09,5.18-0.25c1.72-0.17,3.44-0.43,5.14-0.76c1.7-0.34,3.38-0.76,5.04-1.26
				c1.66-0.5,3.29-1.09,4.89-1.75s3.17-1.4,4.7-2.22s3.01-1.71,4.45-2.67c1.44-0.96,2.83-1.99,4.17-3.09
				c1.34-1.1,2.62-2.26,3.85-3.49s2.39-2.51,3.48-3.85c1.1-1.34,2.13-2.73,3.09-4.17c0.96-1.44,1.85-2.92,2.67-4.45
				c0.82-1.53,1.56-3.09,2.22-4.69c0.66-1.6,1.25-3.23,1.75-4.89c0.5-1.66,0.93-3.34,1.26-5.04c0.34-1.7,0.59-3.41,0.76-5.14
				c0.17-1.72,0.26-3.45,0.26-5.18V1.68H743.14z"/>
		</g>
	</g>
	<path class="st1" d="M900,118.63V100.6h-86.17V18.15h85.75V0.13h-103.8v222.08h103.8v-18.05h-85.75v-85.52H900z"/>
	<path class="st1" d="M432.05,1.68v0.54L302.82,184.84l-28.32-42.07h12.53c37.98,0,50.73-41.78,50.73-52.88V52.14
		c0-16.53-23.45-50.25-50.73-50.25h-95.48v219.06h17.9V19.91h77.58c16.83,0,32.64,25.01,32.64,32.23v37.75
		c0,3.55-7.1,34.86-32.64,34.86h-46.25l50.9,75.86l-14.74,20.89h50.39l-13.79-20.53l32.11-45.36h86.53v65.35h17.9V1.68H432.05z
		 M432.05,137.49h-73.64L432.05,33.4V137.49z"/>
</g>
<text transform="matrix(1.1244 0 0 1 110.9868 296.3252)" class="st3 st4 st5">ON LINE SHOP</text>
</svg>
